<?xml version="1.0" encoding="iso-8859-1"?>
<!-- Generator: Adobe Illustrator 18.0.0, SVG Export Plug-In . SVG Version: 6.00 Build 0)  -->
<!DOCTYPE svg PUBLIC "-//W3C//DTD SVG 1.1//EN" "http://www.w3.org/Graphics/SVG/1.1/DTD/svg11.dtd">
<svg version="1.1" id="Capa_1" xmlns="http://www.w3.org/2000/svg" xmlns:xlink="http://www.w3.org/1999/xlink" x="0px" y="0px"
	 viewBox="0 0 800.75 1000.75" style="enable-background:new 0 0 492.75 492.75;" xml:space="preserve">
<g transform="translate(0.000000,980.000000) scale(0.100000,-0.100000)">
<path d="M3382 9790 c-130 -18 -318 -119 -432 -230 -155 -153 -226 -296 -269
-537 l-17 -98 -195 -6 c-206 -7 -309 -23 -411 -64 -125 -51 -236 -149 -296
-264 -46 -87 -232 -662 -387 -1201 -90 -314 -98 -354 -98 -505 1 -125 14 -179
71 -292 l21 -41 -21 -18 c-48 -43 -137 -166 -181 -252 l-47 -91 -7 -805 -6
-805 -304 -182 c-573 -342 -656 -406 -739 -573 l-47 -96 -8 -217 c-4 -120 -8
-545 -8 -944 l-1 -725 48 -96 c79 -158 188 -275 315 -339 123 -63 312 -87 392
-50 84 38 133 128 122 223 -13 108 -71 164 -199 193 -121 27 -173 57 -203 115
-29 55 -35 186 -35 706 l0 524 333 -2 332 -3 6 -1075 c6 -1163 4 -1108 61
-1280 109 -329 373 -590 713 -707 119 -41 384 -47 2125 -47 1757 0 2006 6
2129 49 290 99 515 296 651 570 113 226 111 201 117 1452 l5 1043 335 0 334 0
-3 -572 c-4 -502 -6 -579 -21 -623 -28 -84 -77 -119 -215 -150 -128 -29 -186
-85 -199 -193 -11 -95 38 -185 122 -223 81 -37 232 -20 364 42 156 72 258 175
342 344 l49 100 -1 705 c0 388 -4 812 -8 942 l-7 238 -47 94 c-84 168 -173
238 -738 575 l-306 182 -6 806 -7 805 -47 91 c-44 85 -133 208 -181 251 l-21
18 19 39 c86 168 97 345 35 584 -32 123 -189 646 -292 970 -136 434 -161 485
-283 598 -142 132 -251 165 -562 174 -179 5 -208 8 -212 22 -2 9 -10 50 -17
91 -51 320 -250 578 -557 722 l-87 41 -625 3 c-344 1 -653 -1 -688 -6z m1152
-440 c91 -14 173 -58 242 -132 74 -81 106 -146 112 -230 l5 -68 -882 0 -881 0
0 59 c0 158 176 345 348 370 82 12 973 13 1056 1z m1278 -917 c49 -51 76 -110
136 -293 110 -333 324 -1071 352 -1212 10 -50 9 -61 -8 -95 -11 -21 -45 -62
-75 -91 l-56 -52 -294 0 -294 0 -6 238 c-7 273 -16 322 -72 371 -43 37 -132
65 -178 56 -69 -15 -135 -63 -164 -120 -14 -26 -28 -255 -32 -512 l-1 -33
-1110 0 -1110 0 -1 33 c-4 257 -18 486 -32 512 -56 108 -193 150 -303 95 -92
-47 -113 -134 -114 -484 l0 -158 -282 4 c-308 5 -331 8 -391 66 -62 59 -70
108 -37 255 35 157 266 936 347 1172 80 231 107 266 206 276 34 3 832 7 1772
7 l1711 2 36 -37z m-3371 -2205 c3 -5 9 -111 13 -236 7 -243 14 -291 44 -331
61 -83 207 -104 301 -43 68 44 82 87 92 271 4 86 8 202 9 259 l0 102 1110 0
1110 0 1 -112 c0 -62 4 -179 8 -260 10 -178 27 -223 99 -266 92 -53 237 -29
295 49 28 39 35 90 42 324 3 116 8 219 10 231 5 20 11 21 262 28 436 11 531
-8 587 -116 l28 -56 10 -299 c13 -392 3 -4602 -11 -4733 -25 -245 -141 -404
-392 -543 l-66 -37 -1984 0 -1984 0 -75 41 c-162 88 -255 184 -339 352 l-51
102 -3 2515 c-1 1945 1 2530 10 2579 24 127 86 177 238 192 105 9 628 -1 636
-13z m-1331 -2423 l0 -245 -294 0 c-161 0 -308 3 -325 6 -26 5 -31 11 -31 34
0 37 37 79 118 138 85 61 503 312 520 312 9 0 12 -56 12 -245z m6019 128 c345
-205 431 -271 431 -332 0 -24 -5 -30 -31 -35 -17 -3 -164 -6 -325 -6 l-294 0
0 193 c0 181 7 297 17 297 3 0 94 -52 202 -117z"/>
	<path d="M2794 4451 c-354 -5 -434 -9 -450 -20 -10 -8 -40 -35 -66 -60 l-48
-45 0 -1431 0 -1431 63 -62 63 -62 1655 0 1655 0 62 63 62 63 0 536 0 536 -58
54 c-90 83 -169 98 -262 51 -30 -16 -63 -40 -73 -54 -27 -37 -36 -140 -45
-499 l-7 -305 -1335 0 -1335 0 -5 655 c-3 360 -3 661 -1 668 2 9 189 12 891
12 l887 0 6 -122 c8 -177 44 -259 131 -299 49 -22 145 -25 185 -5 36 19 109
99 116 128 3 13 6 84 8 158 l2 135 383 6 383 6 65 64 64 63 0 536 0 536 -62
61 -63 61 -1220 4 c-671 2 -1414 2 -1651 -1z m2026 -440 l525 -6 0 -215 0
-215 -1337 -3 -1338 -2 0 215 c0 118 3 216 8 216 87 16 1177 21 2142 10z"/>
</g>
</svg>
